<svg width="40" height="40" viewBox="0 0 40 40" fill="none" xmlns="http://www.w3.org/2000/svg">
<mask id="mask0_1134_48306" style="mask-type:alpha" maskUnits="userSpaceOnUse" x="0" y="0" width="40" height="40">
<rect width="40" height="40" fill="#D9D9D9"/>
</mask>
<g mask="url(#mask0_1134_48306)">
<path d="M8.43886 34.1666C7.7275 34.1666 7.1152 33.9099 6.60195 33.3967C6.08867 32.8834 5.83203 32.2711 5.83203 31.5598V8.44017C5.83203 7.72881 6.08867 7.1165 6.60195 6.60325C7.1152 6.08997 7.7275 5.83333 8.43886 5.83333H16.6056C16.6048 4.92667 16.9324 4.14445 17.5884 3.48667C18.2444 2.82889 19.0505 2.5 20.0067 2.5C20.9629 2.5 21.7689 2.82889 22.4249 3.48667C23.0809 4.14445 23.4032 4.92667 23.3917 5.83333H31.5584C32.2698 5.83333 32.8821 6.08997 33.3954 6.60325C33.9086 7.1165 34.1653 7.72881 34.1653 8.44017V31.5598C34.1653 32.2711 33.9086 32.8834 33.3954 33.3967C32.8821 33.9099 32.2698 34.1666 31.5584 34.1666H8.43886ZM8.43886 32.0726H31.5584C31.6867 32.0726 31.8042 32.0192 31.911 31.9123C32.0179 31.8055 32.0713 31.688 32.0713 31.5598V8.44017C32.0713 8.31195 32.0179 8.19442 31.911 8.08759C31.8042 7.98072 31.6867 7.92729 31.5584 7.92729H8.43886C8.31064 7.92729 8.19311 7.98072 8.08628 8.08759C7.97942 8.19442 7.92599 8.31195 7.92599 8.44017V31.5598C7.92599 31.688 7.97942 31.8055 8.08628 31.9123C8.19311 32.0192 8.31064 32.0726 8.43886 32.0726ZM13.129 27.7243H21.7273C22.0239 27.7243 22.2726 27.6234 22.4733 27.4217C22.6739 27.2199 22.7743 26.9699 22.7743 26.6717C22.7743 26.3734 22.6739 26.1253 22.4733 25.9273C22.2726 25.7293 22.0239 25.6303 21.7273 25.6303H13.129C12.8324 25.6303 12.5837 25.7312 12.383 25.933C12.1824 26.1347 12.082 26.3847 12.082 26.6829C12.082 26.9812 12.1824 27.2293 12.383 27.4273C12.5837 27.6253 12.8324 27.7243 13.129 27.7243ZM13.129 21.0469H26.8683C27.165 21.0469 27.4136 20.9461 27.6143 20.7443C27.815 20.5426 27.9153 20.2926 27.9153 19.9943C27.9153 19.6961 27.815 19.448 27.6143 19.25C27.4136 19.052 27.165 18.953 26.8683 18.953H13.129C12.8324 18.953 12.5837 19.0539 12.383 19.2556C12.1824 19.4573 12.082 19.7073 12.082 20.0056C12.082 20.3038 12.1824 20.5519 12.383 20.7499C12.5837 20.9479 12.8324 21.0469 13.129 21.0469ZM13.129 14.3696H26.8683C27.165 14.3696 27.4136 14.2687 27.6143 14.067C27.815 13.8652 27.9153 13.6152 27.9153 13.317C27.9153 13.0188 27.815 12.7706 27.6143 12.5726C27.4136 12.3746 27.165 12.2756 26.8683 12.2756H13.129C12.8324 12.2756 12.5837 12.3765 12.383 12.5783C12.1824 12.78 12.082 13.03 12.082 13.3283C12.082 13.6265 12.1824 13.8746 12.383 14.0726C12.5837 14.2706 12.8324 14.3696 13.129 14.3696ZM19.9964 7.10254C20.3674 7.10254 20.6867 6.97131 20.9542 6.70883C21.2217 6.44636 21.3555 6.1271 21.3555 5.75104C21.3555 5.37496 21.2217 5.0557 20.9542 4.79325C20.6867 4.53078 20.3674 4.39954 19.9964 4.39954C19.6254 4.39954 19.3087 4.53078 19.0462 4.79325C18.7837 5.0557 18.6525 5.37496 18.6525 5.75104C18.6525 6.1271 18.7837 6.44636 19.0462 6.70883C19.3087 6.97131 19.6254 7.10254 19.9964 7.10254Z" fill="white"/>
</g>
</svg>
