<svg width="40" height="40" viewBox="0 0 40 40" fill="none" xmlns="http://www.w3.org/2000/svg">
<mask id="mask0_1124_51692" style="mask-type:alpha" maskUnits="userSpaceOnUse" x="0" y="0" width="40" height="40">
<rect width="40" height="40" fill="#D9D9D9"/>
</mask>
<g mask="url(#mask0_1124_51692)">
<path d="M4.16797 36.8593V34.7653H35.8346V36.8593H4.16797ZM7.5013 32.5004V24.1992C6.48066 21.9961 5.74366 20.0593 5.2903 18.3887C4.83697 16.7182 4.6103 15.0919 4.6103 13.51C4.6103 12.0492 4.79584 10.5216 5.16693 8.92725C5.53801 7.33288 6.07397 5.67459 6.7748 3.95237C6.96286 3.50723 7.22686 3.15681 7.5668 2.90112C7.90675 2.64543 8.29302 2.51758 8.72564 2.51758C9.28827 2.51758 9.72984 2.71362 10.0503 3.1057C10.3708 3.49779 10.5179 4.03106 10.4916 4.70554L10.2801 9.13287C10.1889 10.4776 10.3901 11.7725 10.8837 13.0175C11.3773 14.2625 12.0751 15.3637 12.9772 16.321C13.8793 17.2782 14.936 18.0418 16.1475 18.6116C17.359 19.1814 18.6436 19.4663 20.0013 19.4663C21.9891 19.4663 23.752 19.6103 25.2897 19.8985C26.8274 20.1865 28.1234 20.6073 29.1775 21.1607C30.2637 21.7355 31.0892 22.4705 31.654 23.3658C32.2188 24.2611 32.5012 25.3459 32.5012 26.6201V32.5004H7.5013ZM9.59526 30.4064H30.4073V26.6201C30.4073 25.7832 30.1982 25.0533 29.7801 24.4304C29.362 23.8076 28.737 23.2917 27.9051 22.8829C27.0005 22.4513 25.882 22.1229 24.5493 21.8978C23.2167 21.6728 21.7007 21.5602 20.0013 21.5602C18.3488 21.5602 16.7846 21.213 15.3084 20.5186C13.8323 19.8241 12.5499 18.897 11.4612 17.737C10.3725 16.5771 9.52743 15.2392 8.92593 13.7232C8.32445 12.2071 8.07677 10.6322 8.18289 8.99829V6.35937C7.72847 7.39215 7.37109 8.54208 7.11076 9.80916C6.85043 11.0763 6.72026 12.3099 6.72026 13.51C6.72026 14.931 6.95246 16.4276 7.41684 17.9999C7.88123 19.5722 8.60737 21.4399 9.59526 23.603V30.4064ZM20.0013 17.1158C18.3923 17.1158 17.0179 16.5459 15.8779 15.4059C14.7379 14.266 14.168 12.8915 14.168 11.2825C14.168 9.67359 14.7379 8.29915 15.8779 7.1592C17.0179 6.01926 18.3923 5.44929 20.0013 5.44929C21.6102 5.44929 22.9847 6.01926 24.1246 7.1592C25.2646 8.29915 25.8346 9.67359 25.8346 11.2825C25.8346 12.8915 25.2646 14.266 24.1246 15.4059C22.9847 16.5459 21.6102 17.1158 20.0013 17.1158ZM19.9996 15.0219C21.0413 15.0219 21.9252 14.6594 22.6514 13.9344C23.3775 13.2094 23.7406 12.326 23.7406 11.2842C23.7406 10.2425 23.3781 9.35859 22.6531 8.63245C21.9281 7.90631 21.0447 7.54325 20.003 7.54325C18.9612 7.54325 18.0773 7.90575 17.3511 8.63074C16.625 9.35574 16.2619 10.2391 16.2619 11.2809C16.2619 12.3226 16.6244 13.2065 17.3495 13.9327C18.0745 14.6588 18.9578 15.0219 19.9996 15.0219ZM13.9863 32.5004V31.3914C13.9863 29.7326 14.5652 28.3186 15.723 27.1495C16.8807 25.9803 18.2854 25.3957 19.9371 25.3957H25.888V27.4897H19.9371C18.8543 27.4897 17.9408 27.8717 17.1966 28.6359C16.4524 29.4 16.0803 30.3185 16.0803 31.3914V32.5004H13.9863Z" fill="white"/>
</g>
</svg>
