<svg width="40" height="40" viewBox="0 0 40 40" fill="none" xmlns="http://www.w3.org/2000/svg">
<mask id="mask0_1106_48324" style="mask-type:alpha" maskUnits="userSpaceOnUse" x="0" y="0" width="40" height="40">
<rect width="40" height="40" fill="#D9D9D9"/>
</mask>
<g mask="url(#mask0_1106_48324)">
<path d="M19.9981 21.4907L13.7139 27.775C13.5024 27.9865 13.2566 28.0896 12.9768 28.0843C12.6968 28.0789 12.4511 27.9705 12.2396 27.7589C12.0281 27.5474 11.9223 27.299 11.9223 27.0138C11.9223 26.7285 12.0281 26.4801 12.2396 26.2686L18.5078 20.0004L12.2236 13.7578C12.012 13.5463 11.9089 13.2979 11.9143 13.0127C11.9196 12.7274 12.0281 12.479 12.2396 12.2675C12.4511 12.056 12.6995 11.9502 12.9848 11.9502C13.27 11.9502 13.5184 12.056 13.7299 12.2675L19.9981 18.5517L26.2407 12.2675C26.4409 12.056 26.6837 11.9502 26.9693 11.9502C27.2549 11.9502 27.5035 12.056 27.715 12.2675C27.9251 12.4847 28.0302 12.7345 28.0302 13.0169C28.0302 13.2993 27.9251 13.5463 27.715 13.7578L21.4468 20.0004L27.7311 26.2847C27.9426 26.4962 28.0483 26.7419 28.0483 27.0218C28.0483 27.3017 27.9426 27.5474 27.7311 27.7589C27.5138 27.9691 27.264 28.0741 26.9816 28.0741C26.6992 28.0741 26.4522 27.9691 26.2407 27.7589L19.9981 21.4907Z" fill="#152334"/>
</g>
</svg>
