<svg width="41" height="41" viewBox="0 0 41 41" fill="none" xmlns="http://www.w3.org/2000/svg">
<rect width="40.1343" height="40.1343" rx="20.0671" fill="white"/>
<path d="M20.0841 21.5405L13.7998 27.8248C13.5883 28.0363 13.3426 28.1394 13.0627 28.1341C12.7828 28.1287 12.5371 28.0203 12.3255 27.8088C12.114 27.5972 12.0082 27.3488 12.0082 27.0636C12.0082 26.7783 12.114 26.5299 12.3255 26.3184L18.5937 20.0502L12.3095 13.8076C12.098 13.5961 11.9949 13.3477 12.0002 13.0625C12.0056 12.7772 12.114 12.5288 12.3255 12.3173C12.5371 12.1058 12.7854 12 13.0707 12C13.3559 12 13.6043 12.1058 13.8159 12.3173L20.0841 18.6015L26.3267 12.3173C26.5268 12.1058 26.7697 12 27.0552 12C27.3408 12 27.5894 12.1058 27.8009 12.3173C28.0111 12.5345 28.1161 12.7843 28.1161 13.0667C28.1161 13.3491 28.0111 13.5961 27.8009 13.8076L21.5327 20.0502L27.817 26.3345C28.0285 26.546 28.1343 26.7917 28.1343 27.0716C28.1343 27.3515 28.0285 27.5972 27.817 27.8088C27.5998 28.0189 27.3499 28.1239 27.0675 28.1239C26.7851 28.1239 26.5382 28.0189 26.3267 27.8088L20.0841 21.5405Z" fill="#007905"/>
</svg>
