<svg width="40" height="40" viewBox="0 0 40 40" fill="none" xmlns="http://www.w3.org/2000/svg">
<mask id="mask0_1134_48294" style="mask-type:alpha" maskUnits="userSpaceOnUse" x="0" y="0" width="40" height="40">
<rect width="40" height="40" fill="#D9D9D9"/>
</mask>
<g mask="url(#mask0_1134_48294)">
<path d="M6.7748 35.8336C6.05847 35.8336 5.44491 35.5782 4.93414 35.0674C4.42336 34.5566 4.16797 33.9431 4.16797 33.2267V15.1072C4.16797 14.3908 4.42336 13.7773 4.93414 13.2665C5.44491 12.7557 6.05847 12.5003 6.7748 12.5003H16.4436V6.26095C16.4436 5.6942 16.651 5.20352 17.0658 4.78891C17.4806 4.3743 17.9754 4.16699 18.55 4.16699H21.4555C22.0301 4.16699 22.5244 4.3743 22.9382 4.78891C23.352 5.20352 23.5589 5.6942 23.5589 6.26095V12.5003H33.2277C33.9441 12.5003 34.5576 12.7557 35.0684 13.2665C35.5792 13.7773 35.8346 14.3908 35.8346 15.1072V33.2267C35.8346 33.9431 35.5792 34.5566 35.0684 35.0674C34.5576 35.5782 33.9441 35.8336 33.2277 35.8336H6.7748ZM6.7748 33.7396H33.2277C33.3773 33.7396 33.5002 33.6915 33.5963 33.5954C33.6925 33.4992 33.7406 33.3763 33.7406 33.2267V15.1072C33.7406 14.9576 33.6925 14.8347 33.5963 14.7385C33.5002 14.6424 33.3773 14.5943 33.2277 14.5943H23.5589V15.8444C23.5589 16.4619 23.3511 16.9652 22.9355 17.3545C22.5199 17.7437 22.0259 17.9383 21.4535 17.9383H18.549C17.9766 17.9383 17.4826 17.7437 17.067 17.3545C16.6514 16.9652 16.4436 16.4619 16.4436 15.8444V14.5943H6.7748C6.62522 14.5943 6.50234 14.6424 6.40618 14.7385C6.31001 14.8347 6.26193 14.9576 6.26193 15.1072V33.2267C6.26193 33.3763 6.31001 33.4992 6.40618 33.5954C6.50234 33.6915 6.62522 33.7396 6.7748 33.7396ZM10.0996 29.3785H19.5589V28.964C19.5589 28.5231 19.445 28.1255 19.2171 27.7711C18.9891 27.4168 18.6864 27.1598 18.3089 27.0003C17.5988 26.7311 16.9804 26.5441 16.4537 26.4394C15.927 26.3347 15.4015 26.2823 14.8773 26.2823C14.3303 26.2823 13.77 26.3422 13.1963 26.4618C12.6225 26.5815 12.0162 26.761 11.3773 27.0003C10.9813 27.1598 10.6694 27.4168 10.4414 27.7711C10.2135 28.1255 10.0996 28.5231 10.0996 28.964V29.3785ZM23.4927 26.7054H30.3624V24.9212H23.4927V26.7054ZM14.8823 24.9212C15.4662 24.9212 15.9646 24.7131 16.3776 24.2968C16.7905 23.8805 16.997 23.3803 16.997 22.7962C16.997 22.2122 16.7905 21.712 16.3776 21.2957C15.9646 20.8794 15.4662 20.6712 14.8823 20.6712C14.2985 20.6712 13.7984 20.8793 13.3821 21.2953C12.9658 21.7113 12.7577 22.2134 12.7577 22.8016C12.7577 23.382 12.9658 23.8805 13.3821 24.2968C13.7984 24.7131 14.2985 24.9212 14.8823 24.9212ZM23.4927 22.3592H30.3624V20.5751H23.4927V22.3592ZM18.5376 15.8444H21.4649V6.26095H18.5376V15.8444Z" fill="#023D26"/>
</g>
</svg>
