<svg width="40" height="40" viewBox="0 0 40 40" fill="none" xmlns="http://www.w3.org/2000/svg">
<mask id="mask0_1106_48308" style="mask-type:alpha" maskUnits="userSpaceOnUse" x="0" y="0" width="40" height="40">
<rect width="40" height="40" fill="#D9D9D9"/>
</mask>
<g mask="url(#mask0_1106_48308)">
<path d="M21.879 14.2973V7.14438C21.879 6.76711 22.0044 6.45423 22.2552 6.20576C22.5059 5.95726 22.8166 5.83301 23.1873 5.83301H32.8638C33.2345 5.83301 33.5441 5.95726 33.7925 6.20576C34.041 6.45423 34.1653 6.76711 34.1653 7.14438V14.2973C34.1653 14.6745 34.0399 14.9874 33.7891 15.2359C33.5384 15.4844 33.2277 15.6086 32.857 15.6086H23.1805C22.8098 15.6086 22.5002 15.4844 22.2517 15.2359C22.0033 14.9874 21.879 14.6745 21.879 14.2973ZM5.83203 19.3329V7.12972C5.83203 6.76222 5.95741 6.45423 6.20816 6.20576C6.45891 5.95726 6.76963 5.83301 7.14032 5.83301H16.8168C17.1875 5.83301 17.4971 5.95731 17.7456 6.20592C17.994 6.45454 18.1183 6.76258 18.1183 7.13005V19.3332C18.1183 19.7007 17.9929 20.0087 17.7422 20.2572C17.4914 20.5057 17.1807 20.6299 16.81 20.6299H7.13353C6.76284 20.6299 6.45325 20.5056 6.20478 20.257C5.95628 20.0084 5.83203 19.7004 5.83203 19.3329ZM21.879 32.8692V20.666C21.879 20.2985 22.0044 19.9906 22.2552 19.7421C22.5059 19.4936 22.8166 19.3693 23.1873 19.3693H32.8638C33.2345 19.3693 33.5441 19.4936 33.7925 19.7423C34.041 19.9908 34.1653 20.2989 34.1653 20.6664V32.8696C34.1653 33.2371 34.0399 33.545 33.7891 33.7935C33.5384 34.042 33.2277 34.1663 32.857 34.1663H23.1805C22.8098 34.1663 22.5002 34.042 22.2517 33.7933C22.0033 33.5448 21.879 33.2367 21.879 32.8692ZM5.83203 32.8549V25.702C5.83203 25.3247 5.95741 25.0119 6.20816 24.7634C6.45891 24.5149 6.76963 24.3907 7.14032 24.3907H16.8168C17.1875 24.3907 17.4971 24.5149 17.7456 24.7634C17.994 25.0119 18.1183 25.3247 18.1183 25.702V32.8549C18.1183 33.2322 17.9929 33.545 17.7422 33.7935C17.4914 34.042 17.1807 34.1663 16.81 34.1663H7.13353C6.76284 34.1663 6.45325 34.042 6.20478 33.7935C5.95628 33.545 5.83203 33.2322 5.83203 32.8549ZM7.92599 18.536H16.0243V7.92697H7.92599V18.536ZM23.973 32.0723H32.0713V21.4633H23.973V32.0723ZM23.973 13.5147H32.0713V7.92697H23.973V13.5147ZM7.92599 32.0723H16.0243V26.4846H7.92599V32.0723Z" fill="#152334"/>
</g>
</svg>
