<svg width="40" height="40" viewBox="0 0 40 40" fill="none" xmlns="http://www.w3.org/2000/svg">
<mask id="mask0_1106_48309" style="mask-type:alpha" maskUnits="userSpaceOnUse" x="0" y="0" width="40" height="40">
<rect width="40" height="40" fill="#D9D9D9"/>
</mask>
<g mask="url(#mask0_1106_48309)">
<path d="M6.7748 32.4999C6.05847 32.4999 5.44491 32.2445 4.93414 31.7337C4.42336 31.223 4.16797 30.6094 4.16797 29.8931V10.1068C4.16797 9.3905 4.42336 8.77694 4.93414 8.26617C5.44491 7.75539 6.05847 7.5 6.7748 7.5H33.2277C33.9441 7.5 34.5576 7.75539 35.0684 8.26617C35.5792 8.77694 35.8346 9.3905 35.8346 10.1068V29.8931C35.8346 30.6094 35.5792 31.223 35.0684 31.7337C34.5576 32.2445 33.9441 32.4999 33.2277 32.4999H6.7748ZM33.7406 11.4849L20.716 20.0138C20.5992 20.075 20.4838 20.1265 20.3698 20.1682C20.2559 20.2098 20.133 20.2307 20.0013 20.2307C19.8695 20.2307 19.7466 20.2098 19.6327 20.1682C19.5187 20.1265 19.4069 20.075 19.2972 20.0138L6.26193 11.4849V29.8931C6.26193 30.0427 6.31001 30.1655 6.40618 30.2617C6.50234 30.3579 6.62522 30.406 6.7748 30.406H33.2277C33.3773 30.406 33.5002 30.3579 33.5963 30.2617C33.6925 30.1655 33.7406 30.0427 33.7406 29.8931V11.4849ZM20.0013 18.2884L33.4051 9.59396H6.62522L20.0013 18.2884ZM6.26193 11.8183V10.3105V10.3549V9.59396V10.3408V10.2871V11.8183Z" fill="#152334"/>
</g>
</svg>
