<svg width="24" height="24" viewBox="0 0 24 24" fill="none" xmlns="http://www.w3.org/2000/svg">
<mask id="mask0_1134_48395" style="mask-type:alpha" maskUnits="userSpaceOnUse" x="0" y="0" width="24" height="24">
<rect width="24" height="24" fill="#D9D9D9"/>
</mask>
<g mask="url(#mask0_1134_48395)">
<path d="M20.3711 12.75H8.57695V11.25H20.3711L18.5519 9.43075L19.6057 8.34615L23.2595 12L19.6057 15.6538L18.5519 14.5692L20.3711 12.75ZM15.2019 8.86535V5.3077C15.2019 5.21795 15.1731 5.14423 15.1154 5.08653C15.0577 5.02883 14.9839 4.99998 14.8942 4.99998H5.3077C5.21795 4.99998 5.14422 5.02883 5.08652 5.08653C5.02882 5.14423 4.99997 5.21795 4.99997 5.3077V18.6923C4.99997 18.782 5.02882 18.8557 5.08652 18.9134C5.14422 18.9711 5.21795 19 5.3077 19H14.8942C14.9839 19 15.0577 18.9711 15.1154 18.9134C15.1731 18.8557 15.2019 18.782 15.2019 18.6923V15.1346H16.7019V18.6923C16.7019 19.191 16.5253 19.6169 16.1721 19.9701C15.8189 20.3233 15.3929 20.5 14.8942 20.5H5.3077C4.80898 20.5 4.38302 20.3233 4.02982 19.9701C3.67661 19.6169 3.5 19.191 3.5 18.6923V5.3077C3.5 4.80898 3.67661 4.38302 4.02982 4.02982C4.38302 3.67661 4.80898 3.5 5.3077 3.5H14.8942C15.3929 3.5 15.8189 3.67661 16.1721 4.02982C16.5253 4.38302 16.7019 4.80898 16.7019 5.3077V8.86535H15.2019Z" fill="#023D26"/>
</g>
</svg>
