<svg width="40" height="40" viewBox="0 0 40 40" fill="none" xmlns="http://www.w3.org/2000/svg">
<mask id="mask0_1134_48313" style="mask-type:alpha" maskUnits="userSpaceOnUse" x="0" y="0" width="40" height="40">
<rect width="40" height="40" fill="#D9D9D9"/>
</mask>
<g mask="url(#mask0_1134_48313)">
<path d="M6.66797 31.6663V28.8886H10.0013V16.5552C10.0013 14.2312 10.6911 12.1548 12.0708 10.3261C13.4504 8.49736 15.2606 7.33301 17.5013 6.83301V5.83301C17.5013 5.13856 17.7444 4.54829 18.2305 4.06217C18.7166 3.57606 19.3069 3.33301 20.0013 3.33301C20.6957 3.33301 21.286 3.57606 21.7721 4.06217C22.2582 4.54829 22.5013 5.13856 22.5013 5.83301V6.83301C24.7421 7.33301 26.5522 8.49736 27.9318 10.3261C29.3115 12.1548 30.0013 14.2312 30.0013 16.5552V28.8886H33.3346V31.6663H6.66797ZM20.0013 36.6663C19.0846 36.6663 18.2999 36.34 17.6471 35.6872C16.9944 35.0344 16.668 34.2497 16.668 33.333H23.3346C23.3346 34.2497 23.0082 35.0344 22.3555 35.6872C21.7027 36.34 20.918 36.6663 20.0013 36.6663ZM12.7791 28.8886H27.2236V16.5552C27.2236 14.5552 26.5198 12.8515 25.1124 11.4441C23.705 10.0367 22.0013 9.33301 20.0013 9.33301C18.0013 9.33301 16.2976 10.0367 14.8902 11.4441C13.4828 12.8515 12.7791 14.5552 12.7791 16.5552V28.8886Z" fill="white"/>
</g>
</svg>
