<svg width="64" height="64" viewBox="0 0 64 64" fill="none" xmlns="http://www.w3.org/2000/svg">
<mask id="mask0_1106_48284" style="mask-type:alpha" maskUnits="userSpaceOnUse" x="0" y="0" width="64" height="64">
<rect width="64" height="64" fill="#D9D9D9"/>
</mask>
<g mask="url(#mask0_1106_48284)">
<path d="M50.1667 50.1666H25.6282V49.5845C25.6282 49.4258 25.6334 49.2694 25.6438 49.1153H48.6154H49.1154V48.6153V42.5742C49.1154 41.0867 48.7356 39.7628 47.9627 38.622L47.5487 38.9024L47.9627 38.622C47.1907 37.4826 46.0303 36.5511 44.5168 35.8121L44.5092 35.8084L44.5014 35.8049C43.1622 35.2066 41.4865 34.7578 39.4865 34.4493C37.4797 34.1398 34.982 33.9871 32 33.9871C29.5097 33.9871 27.1272 33.4332 24.8472 32.3222C22.5542 31.2049 20.5455 29.7274 18.8183 27.8884C17.0915 26.0498 15.7424 23.9461 14.7703 21.5744C13.8035 19.2153 13.405 16.8112 13.5707 14.3566L13.5718 14.3398V14.323V10.323L12.6141 10.1216C11.8838 11.7815 11.314 13.6079 10.9027 15.5987C10.4909 17.5913 10.2846 19.5662 10.2846 21.523C10.2846 23.7055 10.6374 26.1277 11.3343 28.7857C12.0265 31.4256 13.2123 34.6854 14.8846 38.5597V48.6153V49.1153H15.3846H22.5873C22.5804 49.2703 22.5769 49.4267 22.5769 49.5845V50.1666H13.8333V39.0768V38.9722L13.7914 38.8764C12.1326 35.0854 10.9518 31.8336 10.2427 29.1172C9.53364 26.4006 9.18207 23.8699 9.18207 21.523C9.18207 19.5348 9.439 17.3732 9.95733 15.0364C10.4743 12.706 11.321 10.0635 12.5019 7.10668C12.683 6.69886 12.9063 6.38598 13.1644 6.15347C13.3893 5.95091 13.6535 5.84863 13.9846 5.84863C14.3466 5.84863 14.54 5.97397 14.6682 6.19883L50.1667 50.1666ZM50.1667 50.1666V42.5742C50.1667 40.79 49.768 39.3158 48.9981 38.1253L49.4179 37.8538L48.9981 38.1253C48.2208 36.9234 47.082 35.9266 45.5579 35.143C44.1284 34.4236 42.3171 33.8718 40.1113 33.498C37.9084 33.1247 35.2066 32.9358 32 32.9358C29.6413 32.9358 27.3735 32.4057 25.2015 31.3496L25.4201 30.8999L25.2015 31.3496C23.0409 30.2989 21.1458 28.9007 19.5189 27.1563L19.8846 26.8153L19.5189 27.1563C17.8925 25.4123 16.6296 23.4304 15.7314 21.2133L15.7314 21.2133C14.8291 18.9855 14.4638 16.699 14.6393 14.3595L14.9462 7.64508M50.1667 50.1666L14.9462 7.64508M14.9462 7.64508C14.945 6.95684 14.8352 6.49156 14.6683 6.19885L14.9462 7.64508ZM24.6282 49.5845V50.1666H23.5769V49.5845C23.5769 49.4263 23.5808 49.2699 23.5884 49.1153H24.6418C24.6327 49.2699 24.6282 49.4263 24.6282 49.5845ZM24.7686 48.1153H23.6953C23.9726 46.4587 24.7373 45.0228 25.9934 43.793C27.6113 42.2091 29.5362 41.423 31.7949 41.423H40.0128V42.4743H31.7949C29.8048 42.4743 28.1006 43.1689 26.7129 44.5527C25.6858 45.577 25.0362 46.7684 24.7686 48.1153ZM8.5 56.1153V55.064H55.5V56.1153H8.5ZM32 27.6024C29.9165 27.6024 28.1567 26.8751 26.692 25.4104C25.2273 23.9457 24.5 22.1859 24.5 20.1024C24.5 18.0189 25.2273 16.2592 26.692 14.7944C28.1567 13.3298 29.9165 12.6024 32 12.6024C34.0835 12.6024 35.8433 13.3298 37.308 14.7945C38.7727 16.2592 39.5 18.0189 39.5 20.1024C39.5 22.1859 38.7727 23.9457 37.308 25.4104C35.8433 26.8751 34.0835 27.6024 32 27.6024ZM31.9918 26.5512C33.7872 26.5512 35.3248 25.9281 36.5733 24.6855C37.8223 23.4423 38.4487 21.9068 38.4487 20.1106C38.4487 18.3152 37.8257 16.7777 36.5831 15.5292C35.3399 14.2801 33.8044 13.6537 32.0082 13.6537C30.2128 13.6537 28.6752 14.2768 27.4267 15.5194C26.1777 16.7625 25.5513 18.2981 25.5513 20.0943C25.5513 21.8897 26.1744 23.4272 27.4169 24.6757C28.6601 25.9248 30.1956 26.5512 31.9918 26.5512Z" fill="#007905" stroke="#007905"/>
</g>
</svg>
