<svg width="64" height="64" viewBox="0 0 64 64" fill="none" xmlns="http://www.w3.org/2000/svg">
<mask id="mask0_1085_72659" style="mask-type:alpha" maskUnits="userSpaceOnUse" x="0" y="0" width="64" height="64">
<rect width="64" height="64" fill="#D9D9D9"/>
</mask>
<g mask="url(#mask0_1085_72659)">
<path d="M46.3987 32.4001L44.932 30.9334L50.5166 25.3334L44.932 19.8001L46.3987 18.3334L51.9987 23.918L57.532 18.3334L58.9987 19.8001L53.4654 25.3334L58.9987 30.9334L57.532 32.4001L51.9987 26.8667L46.3987 32.4001ZM23.9987 30.3437C21.7987 30.3437 19.9667 29.6116 18.5026 28.1475C17.0384 26.6834 16.3064 24.8513 16.3064 22.6513C16.3064 20.4171 17.0384 18.5765 18.5026 17.1295C19.9667 15.6825 21.7987 14.959 23.9987 14.959C26.1987 14.959 28.0307 15.6825 29.4948 17.1295C30.959 18.5765 31.691 20.4171 31.691 22.6513C31.691 24.8513 30.959 26.6834 29.4948 28.1475C28.0307 29.6116 26.1987 30.3437 23.9987 30.3437ZM5.33203 49.6411V45.7847C5.33203 44.6735 5.65254 43.6385 6.29356 42.6795C6.93459 41.7205 7.83459 40.9812 8.99357 40.4616C11.7799 39.2343 14.379 38.3377 16.791 37.7719C19.203 37.206 21.6055 36.9231 23.9987 36.9231C26.3919 36.9231 28.7919 37.206 31.1987 37.7719C33.6055 38.3377 36.2021 39.2343 38.9884 40.4616C40.1474 41.0257 41.05 41.7761 41.6962 42.7129C42.3423 43.6496 42.6654 44.6735 42.6654 45.7847V49.6411H5.33203ZM7.3833 47.5898H40.6141V45.7847C40.6141 45.1078 40.3885 44.4556 39.9372 43.8283C39.4859 43.2009 38.8585 42.6804 38.0551 42.2667C35.5149 41.0736 33.1442 40.2266 30.943 39.7257C28.7417 39.2248 26.427 38.9744 23.9987 38.9744C21.5704 38.9744 19.2446 39.2248 17.0211 39.7257C14.7976 40.2266 12.4329 41.0736 9.9269 42.2667C9.0893 42.6804 8.45596 43.2009 8.0269 43.8283C7.59783 44.4556 7.3833 45.1078 7.3833 45.7847V47.5898ZM23.9987 28.2924C25.5953 28.2924 26.9346 27.7513 28.0166 26.6693C29.0987 25.5872 29.6397 24.2479 29.6397 22.6513C29.6397 21.0547 29.0987 19.7154 28.0166 18.6334C26.9346 17.5513 25.5953 17.0103 23.9987 17.0103C22.4021 17.0103 21.0628 17.5513 19.9808 18.6334C18.8987 19.7154 18.3577 21.0547 18.3577 22.6513C18.3577 24.2479 18.8987 25.5872 19.9808 26.6693C21.0628 27.7513 22.4021 28.2924 23.9987 28.2924Z" fill="#007905"/>
</g>
</svg>
