<svg width="65" height="64" viewBox="0 0 65 64" fill="none" xmlns="http://www.w3.org/2000/svg">
<mask id="mask0_1088_88694" style="mask-type:alpha" maskUnits="userSpaceOnUse" x="0" y="0" width="65" height="64">
<rect x="0.735352" width="64" height="64" fill="#D9D9D9"/>
</mask>
<g mask="url(#mask0_1088_88694)">
<path d="M8.73535 56.6153V54.564H56.7354V56.6153H8.73535ZM14.0687 50.6666V39.0768C12.4037 35.2717 11.2122 31.9939 10.4943 29.2435C9.77637 26.4931 9.41742 23.9195 9.41742 21.523C9.41742 19.4922 9.6798 17.2939 10.2046 14.9281C10.7294 12.5623 11.5866 9.89048 12.7764 6.9127C12.9815 6.44777 13.2444 6.07086 13.5652 5.78197C13.8859 5.49308 14.2708 5.34863 14.72 5.34863C15.2362 5.34863 15.6089 5.54947 15.838 5.95116C16.067 6.3529 16.1816 6.92128 16.1816 7.6563L15.8738 14.3896C15.7029 16.6529 16.055 18.8649 16.9302 21.0256C17.8055 23.1862 19.0354 25.1161 20.62 26.8153C22.2046 28.5144 24.0498 29.8759 26.1555 30.8999C28.2612 31.9238 30.4545 32.4358 32.7354 32.4358C35.9593 32.4358 38.6909 32.6255 40.9302 33.005C43.1696 33.3845 45.0328 33.9486 46.52 34.6973C48.1097 35.5144 49.3208 36.5666 50.1533 37.8538C50.9858 39.1409 51.402 40.7144 51.402 42.5742V50.6666H14.0687ZM16.12 48.6153H49.3508V42.5742C49.3508 41.176 48.9952 39.952 48.2841 38.9024C47.573 37.8529 46.4892 36.9725 45.0328 36.2614C43.7474 35.6871 42.1183 35.2478 40.1456 34.9435C38.173 34.6392 35.7029 34.4871 32.7354 34.4871C30.1678 34.4871 27.7106 33.9153 25.3636 32.7717C23.0165 31.6281 20.9584 30.1144 19.1892 28.2307C17.42 26.3469 16.0379 24.1914 15.043 21.764C14.0482 19.3367 13.6362 16.8563 13.8072 14.323V10.323C13.0926 11.9469 12.5328 13.7392 12.1277 15.6999C11.7225 17.6606 11.52 19.6016 11.52 21.523C11.52 23.6529 11.8644 26.0315 12.5533 28.6589C13.2422 31.2862 14.4311 34.552 16.12 38.4563V48.6153ZM32.7354 28.1024C30.52 28.1024 28.6328 27.3229 27.0738 25.764C25.5148 24.205 24.7354 22.3178 24.7354 20.1024C24.7354 17.8871 25.5148 15.9999 27.0738 14.4409C28.6328 12.8819 30.52 12.1024 32.7354 12.1024C34.9507 12.1024 36.8379 12.8819 38.3969 14.4409C39.9559 15.9999 40.7354 17.8871 40.7354 20.1024C40.7354 22.3178 39.9559 24.205 38.3969 25.764C36.8379 27.3229 34.9507 28.1024 32.7354 28.1024ZM32.7272 26.0512C34.3942 26.0512 35.8038 25.4778 36.9559 24.3311C38.108 23.1844 38.6841 21.7776 38.6841 20.1106C38.6841 18.4436 38.1107 17.034 36.964 15.8819C35.8174 14.7298 34.4105 14.1537 32.7436 14.1537C31.0765 14.1537 29.667 14.7271 28.5148 15.8738C27.3627 17.0204 26.7866 18.4273 26.7866 20.0943C26.7866 21.7613 27.36 23.1708 28.5067 24.323C29.6534 25.4751 31.0602 26.0512 32.7272 26.0512ZM23.8123 50.6666V49.5845C23.8123 47.1606 24.6678 45.111 26.379 43.4358C28.0901 41.7606 30.1405 40.923 32.5302 40.923H41.2482V42.9743H32.5302C30.6696 42.9743 29.0933 43.6185 27.8014 44.9068C26.5095 46.1951 25.8636 47.7543 25.8636 49.5845V50.6666H23.8123Z" fill="#007905"/>
</g>
</svg>
