<svg width="40" height="40" viewBox="0 0 40 40" fill="none" xmlns="http://www.w3.org/2000/svg">
<mask id="mask0_1106_48313" style="mask-type:alpha" maskUnits="userSpaceOnUse" x="0" y="0" width="40" height="40">
<rect width="40" height="40" fill="#D9D9D9"/>
</mask>
<g mask="url(#mask0_1106_48313)">
<path d="M12.0201 27.9334H22.7572V25.8394H12.0201V27.9334ZM12.0201 21.0466H27.9772V18.9527H12.0201V21.0466ZM12.0201 14.1598H27.9772V12.0659H12.0201V14.1598ZM8.43886 34.1663C7.72253 34.1663 7.10898 33.9109 6.5982 33.4001C6.08742 32.8893 5.83203 32.2758 5.83203 31.5594V8.43984C5.83203 7.72351 6.08742 7.10995 6.5982 6.59917C7.10898 6.0884 7.72253 5.83301 8.43886 5.83301H31.5584C32.2748 5.83301 32.8883 6.0884 33.3991 6.59917C33.9099 7.10995 34.1653 7.72351 34.1653 8.43984V31.5594C34.1653 32.2758 33.9099 32.8893 33.3991 33.4001C32.8883 33.9109 32.2748 34.1663 31.5584 34.1663H8.43886ZM8.43886 32.0723H31.5584C31.6867 32.0723 31.8042 32.0189 31.911 31.912C32.0179 31.8052 32.0713 31.6876 32.0713 31.5594V8.43984C32.0713 8.31162 32.0179 8.19409 31.911 8.08726C31.8042 7.9804 31.6867 7.92697 31.5584 7.92697H8.43886C8.31064 7.92697 8.19311 7.9804 8.08628 8.08726C7.97942 8.19409 7.92599 8.31162 7.92599 8.43984V31.5594C7.92599 31.6876 7.97942 31.8052 8.08628 31.912C8.19311 32.0189 8.31064 32.0723 8.43886 32.0723Z" fill="#152334"/>
</g>
</svg>
