<svg width="24" height="24" viewBox="0 0 24 24" fill="none" xmlns="http://www.w3.org/2000/svg">
<rect width="24" height="24" fill="white" fill-opacity="0.01"/>
<path fill-rule="evenodd" clip-rule="evenodd" d="M16.4358 15.0854L20.3758 19.0954C20.5523 19.2862 20.6476 19.5382 20.6414 19.798C20.6353 20.0578 20.5283 20.3051 20.3431 20.4873C20.1578 20.6696 19.9088 20.7726 19.6489 20.7745C19.389 20.7764 19.1386 20.677 18.9508 20.4974L15.0128 16.4914C13.4933 17.636 11.5956 18.1605 9.70403 17.9586C7.81242 17.7567 6.06821 16.8435 4.82457 15.404C3.58094 13.9644 2.93081 12.1061 3.00584 10.2052C3.08087 8.30431 3.87544 6.50297 5.22867 5.16591C6.5819 3.82884 8.39266 3.05598 10.2943 3.0038C12.1959 2.95162 14.0464 3.62403 15.4709 4.88488C16.8954 6.14573 17.7875 7.90079 17.9667 9.79469C18.1458 11.6886 17.5986 13.5798 16.4358 15.0854V15.0854ZM10.4998 16.0004C11.9584 16.0004 13.3574 15.4209 14.3888 14.3895C15.4203 13.358 15.9998 11.9591 15.9998 10.5004C15.9998 9.04171 15.4203 7.64276 14.3888 6.61131C13.3574 5.57986 11.9584 5.0004 10.4998 5.0004C9.04106 5.0004 7.64212 5.57986 6.61067 6.61131C5.57922 7.64276 4.99976 9.04171 4.99976 10.5004C4.99976 11.9591 5.57922 13.358 6.61067 14.3895C7.64212 15.4209 9.04106 16.0004 10.4998 16.0004V16.0004Z" fill="white"/>
</svg>
