<svg width="40" height="40" viewBox="0 0 40 40" fill="none" xmlns="http://www.w3.org/2000/svg">
<mask id="mask0_1132_48262" style="mask-type:alpha" maskUnits="userSpaceOnUse" x="0" y="0" width="40" height="40">
<rect width="40" height="40" fill="#D9D9D9"/>
</mask>
<g mask="url(#mask0_1132_48262)">
<path d="M16.5131 35.8336L15.7994 30.8015C15.2702 30.622 14.7081 30.3638 14.113 30.027C13.5179 29.69 12.9999 29.3321 12.559 28.9532L7.8849 31.0301L4.38281 24.8828L8.54623 21.792C8.49637 21.5142 8.46058 21.2183 8.43885 20.9042C8.41713 20.59 8.40627 20.2941 8.40627 20.0163C8.40627 19.7492 8.41713 19.4595 8.43885 19.1472C8.46058 18.8349 8.49637 18.522 8.54623 18.2086L4.38281 15.1071L7.8849 9.00249L12.543 11.0527C13.0159 10.6702 13.5407 10.3132 14.1173 9.98166C14.6938 9.65008 15.2492 9.39847 15.7834 9.22683L16.5131 4.16699H23.4831L24.1968 9.21508C24.7723 9.42661 25.3319 9.68462 25.8757 9.98912C26.4196 10.2936 26.924 10.6481 27.3891 11.0527L32.122 9.00249L35.6134 15.1071L31.3859 18.2118C31.4571 18.5223 31.5 18.8284 31.5146 19.1301C31.5292 19.4317 31.5365 19.7218 31.5365 20.0003C31.5365 20.2681 31.5265 20.55 31.5066 20.8459C31.4867 21.1419 31.4436 21.4576 31.3773 21.793L35.5835 24.8828L32.0814 31.0301L27.3891 28.9372C26.9055 29.3375 26.3916 29.7027 25.8474 30.0328C25.3033 30.363 24.753 30.6139 24.1968 30.7855L23.4831 35.8336H16.5131ZM18.2524 33.7396H21.7139L22.3133 29.1509C23.1865 28.9287 23.9958 28.6027 24.7411 28.1728C25.4865 27.743 26.2011 27.1951 26.8849 26.5291L31.1669 28.3657L32.825 25.4533L29.0515 22.6499C29.1719 22.1769 29.2618 21.7257 29.3213 21.2962C29.3807 20.8667 29.4105 20.4348 29.4105 20.0003C29.4105 19.548 29.3836 19.1125 29.3298 18.6937C29.2761 18.2749 29.1833 17.8379 29.0515 17.3828L32.8571 14.5473L31.199 11.6349L26.8688 13.48C26.2926 12.8425 25.5991 12.2802 24.7881 11.793C23.9773 11.3058 23.147 10.9914 22.2973 10.8497L21.7438 6.26095H18.2609L17.7096 10.8336C16.8108 11.0231 15.9824 11.3354 15.2246 11.7706C14.4668 12.2058 13.7552 12.7674 13.09 13.4554L8.79723 11.6349L7.13915 14.5473L10.9073 17.3261C10.7798 17.7513 10.6854 18.1862 10.6242 18.6306C10.5629 19.0751 10.5323 19.537 10.5323 20.0163C10.5323 20.4686 10.5629 20.9116 10.6242 21.3454C10.6854 21.7791 10.7745 22.214 10.8913 22.6499L7.13915 25.4533L8.79723 28.3657L13.0739 26.5366C13.7292 27.2047 14.4375 27.7546 15.1989 28.1862C15.9604 28.6178 16.7919 28.9447 17.6936 29.167L18.2524 33.7396ZM19.9724 24.7972C21.3065 24.7972 22.4395 24.3313 23.3714 23.3993C24.3034 22.4673 24.7694 21.3343 24.7694 20.0003C24.7694 18.6663 24.3034 17.5333 23.3714 16.6013C22.4395 15.6693 21.3065 15.2033 19.9724 15.2033C18.6399 15.2033 17.5072 15.6693 16.5745 16.6013C15.6419 17.5333 15.1755 18.6663 15.1755 20.0003C15.1755 21.3343 15.6419 22.4673 16.5745 23.3993C17.5072 24.3313 18.6399 24.7972 19.9724 24.7972Z" fill="white"/>
</g>
</svg>
