<svg width="24" height="24" viewBox="0 0 24 24" fill="none" xmlns="http://www.w3.org/2000/svg">
<path d="M16.1 14.5L14.65 13.05C14.8 12.2667 14.575 11.5333 13.975 10.85C13.375 10.1667 12.6 9.9 11.65 10.05L10.2 8.6C10.4833 8.46667 10.7708 8.36667 11.0625 8.3C11.3542 8.23333 11.6667 8.2 12 8.2C13.25 8.2 14.3125 8.6375 15.1875 9.5125C16.0625 10.3875 16.5 11.45 16.5 12.7C16.5 13.0333 16.4667 13.3458 16.4 13.6375C16.3333 13.9292 16.2333 14.2167 16.1 14.5ZM19.3 17.65L17.85 16.25C18.4833 15.7667 19.0458 15.2375 19.5375 14.6625C20.0292 14.0875 20.45 13.4333 20.8 12.7C19.9667 11.0167 18.7708 9.67917 17.2125 8.6875C15.6542 7.69583 13.9167 7.2 12 7.2C11.5167 7.2 11.0417 7.23333 10.575 7.3C10.1083 7.36667 9.65 7.46667 9.2 7.6L7.65 6.05C8.33333 5.76667 9.03333 5.55417 9.75 5.4125C10.4667 5.27083 11.2167 5.2 12 5.2C14.5167 5.2 16.7583 5.89583 18.725 7.2875C20.6917 8.67917 22.1167 10.4833 23 12.7C22.6167 13.6833 22.1125 14.5958 21.4875 15.4375C20.8625 16.2792 20.1333 17.0167 19.3 17.65ZM19.8 23.8L15.6 19.65C15.0167 19.8333 14.4292 19.9708 13.8375 20.0625C13.2458 20.1542 12.6333 20.2 12 20.2C9.48333 20.2 7.24167 19.5042 5.275 18.1125C3.30833 16.7208 1.88333 14.9167 1 12.7C1.35 11.8167 1.79167 10.9958 2.325 10.2375C2.85833 9.47917 3.46667 8.8 4.15 8.2L1.4 5.4L2.8 4L21.2 22.4L19.8 23.8ZM5.55 9.6C5.06667 10.0333 4.625 10.5083 4.225 11.025C3.825 11.5417 3.48333 12.1 3.2 12.7C4.03333 14.3833 5.22917 15.7208 6.7875 16.7125C8.34583 17.7042 10.0833 18.2 12 18.2C12.3333 18.2 12.6583 18.1792 12.975 18.1375C13.2917 18.0958 13.6167 18.05 13.95 18L13.05 17.05C12.8667 17.1 12.6917 17.1375 12.525 17.1625C12.3583 17.1875 12.1833 17.2 12 17.2C10.75 17.2 9.6875 16.7625 8.8125 15.8875C7.9375 15.0125 7.5 13.95 7.5 12.7C7.5 12.5167 7.5125 12.3417 7.5375 12.175C7.5625 12.0083 7.6 11.8333 7.65 11.65L5.55 9.6Z" fill="white"/>
</svg>
