<svg width="24" height="24" viewBox="0 0 24 24" fill="none" xmlns="http://www.w3.org/2000/svg">
<mask id="mask0_1106_48360" style="mask-type:alpha" maskUnits="userSpaceOnUse" x="0" y="0" width="24" height="24">
<rect width="24" height="24" fill="#D9D9D9"/>
</mask>
<g mask="url(#mask0_1106_48360)">
<path d="M12.0004 20.0003C12.8889 20.0003 13.7456 19.86 14.5706 19.5792C15.3956 19.2984 16.153 18.8875 16.8427 18.3465C16.1402 17.8247 15.3795 17.4282 14.5608 17.1571C13.7422 16.8859 12.8886 16.7503 12.0003 16.7503C11.1119 16.7503 10.2552 16.8827 9.43022 17.1474C8.60522 17.4122 7.84785 17.8119 7.1581 18.3465C7.84785 18.8875 8.60522 19.2984 9.43022 19.5792C10.2552 19.86 11.112 20.0003 12.0004 20.0003ZM14.4581 11.6369L13.3889 10.5677C13.5043 10.4151 13.5934 10.2456 13.6562 10.0593C13.719 9.87299 13.7504 9.68667 13.7504 9.50034C13.7504 9.01957 13.579 8.6077 13.236 8.26474C12.8931 7.92179 12.4812 7.75031 12.0004 7.75031C11.8141 7.75031 11.6278 7.78173 11.4415 7.84456C11.2551 7.90738 11.0857 7.99648 10.9331 8.11186L9.8639 7.04266C10.1586 6.77856 10.4883 6.58049 10.8528 6.44844C11.2174 6.31639 11.6013 6.25036 12.0047 6.25036C12.9044 6.25036 13.6703 6.56639 14.3023 7.19844C14.9344 7.83047 15.2504 8.59636 15.2504 9.49611C15.2504 9.89944 15.1844 10.2834 15.0523 10.6479C14.9203 11.0125 14.7222 11.3421 14.4581 11.6369ZM19.985 17.1638L18.8908 16.0696C19.2575 15.4465 19.5341 14.7933 19.7206 14.11C19.9072 13.4266 20.0004 12.7234 20.0004 12.0003C20.0004 9.767 19.2254 7.87534 17.6754 6.32534C16.1254 4.77534 14.2338 4.00034 12.0004 4.00034C11.2773 4.00034 10.5741 4.0936 9.8908 4.28014C9.20747 4.46669 8.55427 4.74329 7.9312 5.10996L6.837 4.01574C7.60878 3.52087 8.43195 3.14459 9.3065 2.88691C10.1811 2.62921 11.079 2.50036 12.0004 2.50036C13.3146 2.50036 14.5496 2.74974 15.7054 3.24849C16.8612 3.74724 17.8666 4.42411 18.7216 5.27911C19.5766 6.13411 20.2535 7.13953 20.7523 8.29536C21.251 9.45118 21.5004 10.6862 21.5004 12.0003C21.5004 12.9217 21.3715 13.8197 21.1138 14.6943C20.8562 15.5688 20.4799 16.392 19.985 17.1638ZM11.9967 21.5003C10.684 21.5003 9.45034 21.2506 8.29577 20.7513C7.14119 20.2519 6.13618 19.5748 5.28073 18.72C4.42526 17.8652 3.74802 16.8601 3.249 15.7045C2.74997 14.5489 2.50045 13.3142 2.50045 12.0003C2.50045 10.9978 2.65077 10.0234 2.95142 9.07726C3.25207 8.13109 3.69791 7.25096 4.28892 6.43686L1.28125 3.40419L2.35043 2.33496L21.8619 21.8465L20.7927 22.9157L5.3889 7.53684C4.93248 8.19839 4.58697 8.90609 4.35235 9.65993C4.11773 10.4138 4.00043 11.1939 4.00043 12.0003C4.00043 12.9912 4.17318 13.9386 4.5187 14.8425C4.86422 15.7465 5.36582 16.5632 6.02352 17.2927C6.90429 16.6478 7.84986 16.1462 8.86023 15.7879C9.87057 15.4295 10.9173 15.2504 12.0004 15.2504C12.762 15.2504 13.5123 15.3523 14.2514 15.5561C14.9905 15.76 15.6985 16.0363 16.3755 16.385L18.7196 18.7292C17.8209 19.6343 16.7921 20.3224 15.6331 20.7936C14.4741 21.2647 13.262 21.5003 11.9967 21.5003Z" fill="#FF3F2F"/>
</g>
</svg>
