<svg width="64" height="64" viewBox="0 0 64 64" fill="none" xmlns="http://www.w3.org/2000/svg">
<mask id="mask0_1106_48302" style="mask-type:alpha" maskUnits="userSpaceOnUse" x="0" y="0" width="64" height="64">
<rect width="64" height="64" fill="#D9D9D9"/>
</mask>
<g mask="url(#mask0_1106_48302)">
<path d="M16.1333 47.2564C18.6598 45.5402 21.1812 44.194 23.6974 43.2179C26.2137 42.2419 28.9812 41.7539 32 41.7539C35.0188 41.7539 37.7889 42.2419 40.3103 43.2179C42.8316 44.194 45.3556 45.5402 47.8821 47.2564C49.8034 45.1641 51.2949 42.843 52.3564 40.293C53.418 37.7431 53.9487 34.9788 53.9487 32C53.9487 25.8632 51.8248 20.6709 47.5769 16.4231C43.3291 12.1752 38.1368 10.0513 32 10.0513C25.8632 10.0513 20.6709 12.1752 16.4231 16.4231C12.1752 20.6709 10.0513 25.8632 10.0513 32C10.0513 34.9788 10.5846 37.7431 11.6513 40.293C12.7179 42.843 14.212 45.1641 16.1333 47.2564ZM31.9835 33.0257C29.7586 33.0257 27.888 32.262 26.3718 30.7347C24.8555 29.2075 24.0974 27.3314 24.0974 25.1065C24.0974 22.8816 24.861 21.0111 26.3883 19.4949C27.9156 17.9786 29.7916 17.2205 32.0165 17.2205C34.2414 17.2205 36.112 17.9842 37.6282 19.5114C39.1445 21.0386 39.9026 22.9147 39.9026 25.1396C39.9026 27.3645 39.139 29.235 37.6117 30.7513C36.0844 32.2675 34.2084 33.0257 31.9835 33.0257ZM32.0312 56C28.6736 56 25.54 55.3769 22.6301 54.1308C19.7203 52.8846 17.1775 51.1701 15.0019 48.9872C12.8263 46.8043 11.1154 44.2667 9.8692 41.3746C8.62307 38.4824 8 35.3602 8 32.0079C8 28.6556 8.62307 25.5308 9.8692 22.6333C11.1154 19.7359 12.8299 17.1957 15.0128 15.0128C17.1957 12.8299 19.7333 11.1154 22.6254 9.8692C25.5176 8.62307 28.6398 8 31.9921 8C35.3444 8 38.4692 8.62307 41.3667 9.8692C44.2641 11.1154 46.8043 12.8299 48.9872 15.0128C51.1701 17.1957 52.8846 19.7366 54.1308 22.6355C55.3769 25.5343 56 28.6454 56 31.9688C56 35.3264 55.3769 38.46 54.1308 41.3699C52.8846 44.2797 51.1701 46.8225 48.9872 48.9981C46.8043 51.1737 44.2634 52.8846 41.3645 54.1308C38.4657 55.3769 35.3546 56 32.0312 56ZM32 53.9487C34.5128 53.9487 37.0128 53.5162 39.5 52.6513C41.9872 51.7863 44.2273 50.4821 46.2205 48.7385C44.2273 47.2068 42.0273 46.0017 39.6205 45.1231C37.2137 44.2444 34.6735 43.8051 32 43.8051C29.3265 43.8051 26.7778 44.2359 24.3539 45.0975C21.9299 45.959 19.7556 47.1726 17.8308 48.7385C19.7898 50.4821 22.0128 51.7863 24.5 52.6513C26.9872 53.5162 29.4872 53.9487 32 53.9487ZM32.0071 30.9743C33.6844 30.9743 35.0778 30.4172 36.1872 29.3031C37.2966 28.1889 37.8513 26.7932 37.8513 25.1159C37.8513 23.4386 37.2942 22.0453 36.18 20.9359C35.0658 19.8265 33.6701 19.2718 31.9929 19.2718C30.3156 19.2718 28.9222 19.8289 27.8128 20.9431C26.7034 22.0572 26.1487 23.453 26.1487 25.1302C26.1487 26.8075 26.7058 28.2008 27.82 29.3103C28.9342 30.4196 30.3299 30.9743 32.0071 30.9743Z" fill="#007905"/>
</g>
</svg>
