<svg width="40" height="40" viewBox="0 0 40 40" fill="none" xmlns="http://www.w3.org/2000/svg">
<mask id="mask0_1119_25658" style="mask-type:alpha" maskUnits="userSpaceOnUse" x="0" y="0" width="40" height="40">
<rect width="40" height="40" fill="#D9D9D9"/>
</mask>
<g mask="url(#mask0_1119_25658)">
<path d="M6.26193 32.0725V12.9272V31.5597V31.252V32.0725ZM6.7748 34.1665C6.05847 34.1665 5.44491 33.9111 4.93414 33.4003C4.42336 32.8896 4.16797 32.276 4.16797 31.5597V13.4401C4.16797 12.7238 4.42336 12.1102 4.93414 11.5994C5.44491 11.0886 6.05847 10.8333 6.7748 10.8333H14.168V7.60679C14.168 6.90026 14.4234 6.28917 14.9341 5.7735C15.4449 5.25783 16.0585 5 16.7748 5H23.2277C23.9441 5 24.5576 5.25783 25.0684 5.7735C25.5792 6.28917 25.8346 6.90026 25.8346 7.60679V10.8333H33.2277C33.9441 10.8333 34.5576 11.0886 35.0684 11.5994C35.5792 12.1102 35.8346 12.7238 35.8346 13.4401V21.595C35.5119 21.36 35.1798 21.1481 34.8383 20.9593C34.4968 20.7706 34.1309 20.5947 33.7406 20.4316V13.4401C33.7406 13.2905 33.6925 13.1676 33.5963 13.0715C33.5002 12.9753 33.3773 12.9272 33.2277 12.9272H6.7748C6.62522 12.9272 6.50234 12.9753 6.40618 13.0715C6.31001 13.1676 6.26193 13.2905 6.26193 13.4401V31.5597C6.26193 31.7093 6.31001 31.8321 6.40618 31.9283C6.50234 32.0245 6.62522 32.0725 6.7748 32.0725H19.9191C20.0031 32.4457 20.1044 32.806 20.223 33.1532C20.3416 33.5004 20.4828 33.8381 20.6466 34.1665H6.7748ZM16.2619 10.8333H23.7406V7.60679C23.7406 7.45721 23.6925 7.33435 23.5963 7.23821C23.5002 7.14204 23.3773 7.09396 23.2277 7.09396H16.7748C16.6252 7.09396 16.5023 7.14204 16.4062 7.23821C16.31 7.33435 16.2619 7.45721 16.2619 7.60679V10.8333ZM30.0013 37.3588C27.9728 37.3588 26.2392 36.6394 24.8005 35.2007C23.3617 33.7619 22.6423 32.0284 22.6423 29.9999C22.6423 27.9714 23.3617 26.2378 24.8005 24.7991C26.2392 23.3603 27.9728 22.641 30.0013 22.641C32.0297 22.641 33.7633 23.3603 35.2021 24.7991C36.6408 26.2378 37.3602 27.9714 37.3602 29.9999C37.3602 32.0284 36.6408 33.7619 35.2021 35.2007C33.7633 36.6394 32.0297 37.3588 30.0013 37.3588ZM30.6765 29.8225V24.9721H29.1679V30.3357L32.9094 33.9293L33.9307 32.908L30.6765 29.8225Z" fill="white"/>
</g>
</svg>
