<svg width="64" height="64" viewBox="0 0 64 64" fill="none" xmlns="http://www.w3.org/2000/svg">
<mask id="mask0_1106_48299" style="mask-type:alpha" maskUnits="userSpaceOnUse" x="0" y="0" width="64" height="64">
<rect width="64" height="64" fill="#D9D9D9"/>
</mask>
<g mask="url(#mask0_1106_48299)">
<path d="M21.0306 43.908C21.5273 43.908 21.9415 43.741 22.2731 43.407C22.6047 43.0729 22.7705 42.6576 22.7705 42.1609C22.7705 41.6641 22.6035 41.2499 22.2695 40.9183C21.9355 40.5867 21.5201 40.4209 21.0234 40.4209C20.5266 40.4209 20.1124 40.5879 19.7808 40.9219C19.4492 41.2559 19.2834 41.6713 19.2834 42.1681C19.2834 42.6648 19.4504 43.0789 19.7844 43.4106C20.1184 43.7422 20.5338 43.908 21.0306 43.908ZM21.0306 33.7439C21.5273 33.7439 21.9415 33.5769 22.2731 33.2429C22.6047 32.9089 22.7705 32.4935 22.7705 31.9967C22.7705 31.5 22.6035 31.0858 22.2695 30.7542C21.9355 30.4226 21.5201 30.2567 21.0234 30.2567C20.5266 30.2567 20.1124 30.4237 19.7808 30.7578C19.4492 31.0918 19.2834 31.5072 19.2834 32.0039C19.2834 32.5007 19.4504 32.9149 19.7844 33.2465C20.1184 33.5781 20.5338 33.7439 21.0306 33.7439ZM21.0306 23.5798C21.5273 23.5798 21.9415 23.4128 22.2731 23.0788C22.6047 22.7447 22.7705 22.3293 22.7705 21.8326C22.7705 21.3359 22.6035 20.9217 22.2695 20.5901C21.9355 20.2585 21.5201 20.0927 21.0234 20.0927C20.5266 20.0927 20.1124 20.2597 19.7808 20.5937C19.4492 20.9277 19.2834 21.3431 19.2834 21.8398C19.2834 22.3365 19.4504 22.7507 19.7844 23.0824C20.1184 23.414 20.5338 23.5798 21.0306 23.5798ZM29.6218 43.1901H44.0936V41.1388H29.6218V43.1901ZM29.6218 33.026H44.0936V30.9747H29.6218V33.026ZM29.6218 22.8619H44.0936V20.8106H29.6218V22.8619ZM14.3602 53.3337C13.3355 53.3337 12.4639 52.9745 11.7455 52.2561C11.0271 51.5377 10.668 50.6661 10.668 49.6414V14.3593C10.668 13.3345 11.0271 12.4629 11.7455 11.7445C12.4639 11.0262 13.3355 10.667 14.3602 10.667H49.6424C50.6671 10.667 51.5387 11.0262 52.2571 11.7445C52.9755 12.4629 53.3346 13.3345 53.3346 14.3593V49.6414C53.3346 50.6661 52.9755 51.5377 52.2571 52.2561C51.5387 52.9745 50.6671 53.3337 49.6424 53.3337H14.3602ZM14.3602 51.2824H49.6424C50.0526 51.2824 50.4287 51.1115 50.7706 50.7696C51.1124 50.4277 51.2834 50.0516 51.2834 49.6414V14.3593C51.2834 13.949 51.1124 13.573 50.7706 13.2311C50.4287 12.8892 50.0526 12.7183 49.6424 12.7183H14.3602C13.95 12.7183 13.5739 12.8892 13.232 13.2311C12.8902 13.573 12.7192 13.949 12.7192 14.3593V49.6414C12.7192 50.0516 12.8902 50.4277 13.232 50.7696C13.5739 51.1115 13.95 51.2824 14.3602 51.2824Z" fill="#007905"/>
</g>
</svg>
