<svg width="64" height="64" viewBox="0 0 64 64" fill="none" xmlns="http://www.w3.org/2000/svg">
<mask id="mask0_1106_48296" style="mask-type:alpha" maskUnits="userSpaceOnUse" x="0" y="0" width="64" height="64">
<rect width="64" height="64" fill="#D9D9D9"/>
</mask>
<g mask="url(#mask0_1106_48296)">
<path d="M30.8359 49.8513H33.0154V46.641C35.1453 46.5692 37.0684 45.9154 38.7846 44.6795C40.5009 43.4436 41.359 41.624 41.359 39.2205C41.359 37.159 40.7402 35.5026 39.5026 34.2513C38.265 33 36.0786 31.7641 32.9436 30.5436C30.024 29.4428 28.1231 28.4872 27.241 27.6769C26.359 26.8667 25.9179 25.7162 25.9179 24.2257C25.9179 22.7795 26.4949 21.5709 27.6487 20.6C28.8026 19.6291 30.2974 19.1436 32.1333 19.1436C33.4667 19.1436 34.6222 19.4376 35.6 20.0257C36.5778 20.6137 37.4171 21.4273 38.1179 22.4667L39.9333 21.6513C39.1778 20.3692 38.212 19.3521 37.0359 18.6C35.8598 17.8479 34.5641 17.4171 33.1487 17.3077V14.1641H30.9692V17.3077C28.6342 17.6188 26.8538 18.4265 25.6282 19.7307C24.4026 21.035 23.7897 22.5334 23.7897 24.2257C23.7897 26.1983 24.4137 27.7607 25.6615 28.9128C26.9094 30.0649 28.9863 31.1966 31.8923 32.3077C34.8359 33.4838 36.8034 34.5376 37.7949 35.4693C38.7863 36.4009 39.2821 37.6513 39.2821 39.2205C39.2821 41.0872 38.5735 42.471 37.1564 43.3718C35.7393 44.2726 34.159 44.7231 32.4154 44.7231C30.7846 44.7231 29.3 44.2684 27.9615 43.359C26.6231 42.4496 25.5846 41.1846 24.8461 39.5641L22.9333 40.3385C23.8325 42.1094 24.9342 43.4726 26.2385 44.4282C27.5427 45.3838 29.0752 46.0769 30.8359 46.5077V49.8513ZM32 56C28.6974 56 25.5949 55.3684 22.6923 54.1051C19.7898 52.8419 17.247 51.1188 15.0641 48.9359C12.8812 46.753 11.1581 44.2102 9.89487 41.3077C8.63162 38.4051 8 35.3026 8 32C8 28.6872 8.63162 25.5709 9.89487 22.6513C11.1581 19.7316 12.8812 17.1914 15.0641 15.0307C17.247 12.8701 19.7898 11.1581 22.6923 9.89486C25.5949 8.63162 28.6974 8 32 8C35.3128 8 38.4291 8.63162 41.3487 9.89486C44.2684 11.1581 46.8086 12.8701 48.9693 15.0307C51.1299 17.1914 52.8419 19.7316 54.1051 22.6513C55.3684 25.5709 56 28.6872 56 32C56 35.3026 55.3684 38.4051 54.1051 41.3077C52.8419 44.2102 51.1299 46.753 48.9693 48.9359C46.8086 51.1188 44.2684 52.8419 41.3487 54.1051C38.4291 55.3684 35.3128 56 32 56ZM32 53.9487C38.106 53.9487 43.2906 51.8145 47.5539 47.5461C51.8171 43.2778 53.9487 38.0957 53.9487 32C53.9487 25.894 51.8171 20.7094 47.5539 16.4461C43.2906 12.1829 38.106 10.0513 32 10.0513C25.9043 10.0513 20.7222 12.1829 16.4539 16.4461C12.1855 20.7094 10.0513 25.894 10.0513 32C10.0513 38.0957 12.1855 43.2778 16.4539 47.5461C20.7222 51.8145 25.9043 53.9487 32 53.9487Z" fill="#007905"/>
</g>
</svg>
