<svg width="40" height="40" viewBox="0 0 40 40" fill="none" xmlns="http://www.w3.org/2000/svg">
<mask id="mask0_1132_48268" style="mask-type:alpha" maskUnits="userSpaceOnUse" x="0" y="0" width="40" height="40">
<rect width="40" height="40" fill="#D9D9D9"/>
</mask>
<g mask="url(#mask0_1132_48268)">
<path d="M19.9981 37.4999C16.7481 37.4999 13.7311 36.5939 10.9473 34.7819C8.16347 32.9699 6.01834 30.7124 4.51193 28.0094V33.5896H2.41797V24.423H11.5846V26.517H6.08347C7.32989 29.0156 9.23872 31.1217 11.81 32.8354C14.3812 34.5491 17.1106 35.406 19.9981 35.406C22.08 35.406 24.041 35.0185 25.8811 34.2435C27.7212 33.4686 29.3328 32.4083 30.716 31.0625C32.0992 29.7167 33.2076 28.1291 34.0413 26.2997C34.875 24.4703 35.3239 22.5093 35.388 20.4167H37.482C37.4286 22.7842 36.9334 25.0042 35.9964 27.0769C35.0594 29.1495 33.803 30.9604 32.2272 32.5095C30.6513 34.0587 28.8137 35.2777 26.7144 36.1666C24.615 37.0555 22.3762 37.4999 19.9981 37.4999ZM18.9596 31.4871V29.3397C17.7695 29.0441 16.7625 28.5526 15.9388 27.8653C15.1151 27.178 14.4404 26.2307 13.9148 25.0235L15.7245 24.3398C16.122 25.391 16.7247 26.2073 17.5328 26.7885C18.3408 27.3697 19.2516 27.6603 20.2651 27.6603C21.315 27.6603 22.2359 27.3973 23.028 26.8713C23.82 26.3453 24.216 25.5655 24.216 24.532C24.216 23.6096 23.8889 22.8612 23.2347 22.2868C22.5805 21.7124 21.3414 21.0648 19.5173 20.344C17.7851 19.6759 16.5237 18.9604 15.7331 18.1976C14.9425 17.4348 14.5472 16.4123 14.5472 15.1303C14.5472 14.0142 14.9436 13.0274 15.7363 12.1698C16.5291 11.3123 17.6313 10.7778 19.0429 10.5662V8.52992H21.0194V10.5662C21.9781 10.6503 22.8408 10.9685 23.6075 11.5208C24.3743 12.0732 24.9731 12.7927 25.404 13.6794L23.6733 14.4444C23.2929 13.7628 22.8104 13.2277 22.2256 12.8391C21.6409 12.4506 20.9261 12.2563 20.0814 12.2563C18.9924 12.2563 18.1254 12.5227 17.4804 13.0555C16.8355 13.5883 16.513 14.2799 16.513 15.1303C16.513 15.9992 16.821 16.6791 17.4371 17.1698C18.0532 17.6606 19.2259 18.2315 20.9553 18.8825C22.914 19.646 24.2712 20.4558 25.0269 21.3119C25.7826 22.1681 26.1604 23.2414 26.1604 24.532C26.1604 25.2813 26.0192 25.9469 25.7368 26.5288C25.4544 27.1107 25.0778 27.6034 24.607 28.0069C24.1362 28.4104 23.5847 28.7307 22.9526 28.9679C22.3205 29.2051 21.6483 29.3568 20.9361 29.423V31.4871H18.9596ZM2.51418 19.5833C2.58895 17.1623 3.10016 14.9129 4.0478 12.8349C4.99544 10.7569 6.26252 8.9487 7.84905 7.41025C9.43561 5.87181 11.2705 4.66882 13.3538 3.80129C15.4372 2.93376 17.6519 2.5 19.9981 2.5C23.216 2.5 26.2329 3.40867 29.0488 5.226C31.8647 7.04333 34.0098 9.31953 35.4842 12.0546V6.41033H37.5781V15.5769H28.4115V13.483H33.9126C32.6982 11.0342 30.8074 8.94053 28.2401 7.20192C25.6728 5.46328 22.9254 4.59396 19.9981 4.59396C17.9589 4.59396 16.0202 4.97608 14.1818 5.74033C12.3435 6.50458 10.7292 7.55427 9.33889 8.88938C7.94858 10.2245 6.82857 11.8068 5.97884 13.6362C5.12912 15.4656 4.6722 17.4479 4.60809 19.5833H2.51418Z" fill="white"/>
</g>
</svg>
