<svg width="64" height="64" viewBox="0 0 64 64" fill="none" xmlns="http://www.w3.org/2000/svg">
<mask id="mask0_1106_48293" style="mask-type:alpha" maskUnits="userSpaceOnUse" x="0" y="0" width="64" height="64">
<rect width="64" height="64" fill="#D9D9D9"/>
</mask>
<g mask="url(#mask0_1106_48293)">
<path d="M29.0859 44.4872L42.4038 31.2205L41.0346 29.8513L29.0859 41.8513L22.7833 35.5487L21.4654 36.8667L29.0859 44.4872ZM17.0243 56C15.9995 56 15.128 55.6408 14.4096 54.9225C13.6912 54.2041 13.332 53.3325 13.332 52.3077V11.6923C13.332 10.6675 13.6912 9.79594 14.4096 9.07754C15.128 8.35918 15.9995 8 17.0243 8H39.2961L50.6654 19.3693V52.3077C50.6654 53.3325 50.3062 54.2041 49.5878 54.9225C48.8694 55.6408 47.9979 56 46.9731 56H17.0243ZM38.2705 20.2975V10.0513H17.0243C16.6141 10.0513 16.238 10.2222 15.8961 10.5641C15.5542 10.906 15.3833 11.282 15.3833 11.6923V52.3077C15.3833 52.718 15.5542 53.094 15.8961 53.4359C16.238 53.7778 16.6141 53.9487 17.0243 53.9487H46.9731C47.3833 53.9487 47.7594 53.7778 48.1013 53.4359C48.4432 53.094 48.6141 52.718 48.6141 52.3077V20.2975H38.2705Z" fill="#007905"/>
</g>
</svg>
