<svg width="24" height="24" viewBox="0 0 24 24" fill="none" xmlns="http://www.w3.org/2000/svg">
<mask id="mask0_1106_48330" style="mask-type:alpha" maskUnits="userSpaceOnUse" x="0" y="0" width="24" height="24">
<rect width="24" height="24" fill="#D9D9D9"/>
</mask>
<g mask="url(#mask0_1106_48330)">
<path d="M12.0026 17.2059C13.3023 17.2059 14.4062 16.751 15.3143 15.8412C16.2224 14.9313 16.6765 13.8265 16.6765 12.5268C16.6765 11.2271 16.2216 10.1232 15.3117 9.21509C14.4019 8.307 13.2971 7.85295 11.9974 7.85295C10.6977 7.85295 9.59377 8.30786 8.68568 9.21767C7.77758 10.1275 7.32354 11.2323 7.32354 12.532C7.32354 13.8317 7.77844 14.9356 8.68826 15.8437C9.59809 16.7518 10.7029 17.2059 12.0026 17.2059ZM12 15.6265C11.1397 15.6265 10.4084 15.3254 9.80624 14.7232C9.20403 14.121 8.90293 13.3897 8.90293 12.5294C8.90293 11.6691 9.20403 10.9379 9.80624 10.3357C10.4084 9.73345 11.1397 9.43234 12 9.43234C12.8603 9.43234 13.5915 9.73345 14.1938 10.3357C14.796 10.9379 15.0971 11.6691 15.0971 12.5294C15.0971 13.3897 14.796 14.121 14.1938 14.7232C13.5915 15.3254 12.8603 15.6265 12 15.6265ZM12.0016 20.5588C9.36377 20.5588 6.9603 19.8313 4.79117 18.3761C2.62205 16.921 1.025 14.9721 0 12.5294C1.025 10.0868 2.62154 8.13786 4.78962 6.68272C6.95768 5.22757 9.36062 4.5 11.9984 4.5C14.6362 4.5 17.0397 5.22757 19.2088 6.68272C21.3779 8.13786 22.975 10.0868 24 12.5294C22.975 14.9721 21.3785 16.921 19.2104 18.3761C17.0423 19.8313 14.6394 20.5588 12.0016 20.5588ZM12 18.8383C14.1603 18.8383 16.1438 18.2695 17.9504 17.132C19.757 15.9945 21.1383 14.4603 22.0942 12.5294C21.1383 10.5985 19.757 9.06433 17.9504 7.92682C16.1438 6.78932 14.1603 6.22057 12 6.22057C9.8397 6.22057 7.85623 6.78932 6.04961 7.92682C4.24299 9.06433 2.86173 10.5985 1.90585 12.5294C2.86173 14.4603 4.24299 15.9945 6.04961 17.132C7.85623 18.2695 9.8397 18.8383 12 18.8383Z" fill="#5B6067"/>
</g>
</svg>
