<svg width="64" height="64" viewBox="0 0 64 64" fill="none" xmlns="http://www.w3.org/2000/svg">
<mask id="mask0_1106_48290" style="mask-type:alpha" maskUnits="userSpaceOnUse" x="0" y="0" width="64" height="64">
<rect width="64" height="64" fill="#D9D9D9"/>
</mask>
<g mask="url(#mask0_1106_48290)">
<path d="M11.6923 53.3337C10.6675 53.3337 9.79593 52.9745 9.07753 52.2561C8.35918 51.5377 8 50.6661 8 49.6414V22.3593C8 21.3345 8.35918 20.4629 9.07753 19.7445C9.79593 19.0262 10.6675 18.667 11.6923 18.667H24V14.3593C24 13.3345 24.3592 12.4629 25.0775 11.7445C25.7959 11.0262 26.6675 10.667 27.6923 10.667H36.3077C37.3325 10.667 38.2041 11.0262 38.9225 11.7445C39.6408 12.4629 40 13.3345 40 14.3593V18.667H52.3077C53.3325 18.667 54.2041 19.0262 54.9225 19.7445C55.6408 20.4629 56 21.3345 56 22.3593V49.6414C56 50.6661 55.6408 51.5377 54.9225 52.2561C54.2041 52.9745 53.3325 53.3337 52.3077 53.3337H11.6923ZM11.6923 51.2824H52.3077C52.718 51.2824 53.094 51.1115 53.4359 50.7696C53.7778 50.4277 53.9487 50.0516 53.9487 49.6414V22.3593C53.9487 21.949 53.7778 21.573 53.4359 21.2311C53.094 20.8892 52.718 20.7183 52.3077 20.7183H11.6923C11.282 20.7183 10.906 20.8892 10.5641 21.2311C10.2222 21.573 10.0513 21.949 10.0513 22.3593V49.6414C10.0513 50.0516 10.2222 50.4277 10.5641 50.7696C10.906 51.1115 11.282 51.2824 11.6923 51.2824ZM26.0513 18.667H37.9487V14.3593C37.9487 13.949 37.7778 13.5729 37.4359 13.2311C37.094 12.8892 36.718 12.7183 36.3077 12.7183H27.6923C27.282 12.7183 26.906 12.8892 26.5641 13.2311C26.2222 13.5729 26.0513 13.949 26.0513 14.3593V18.667Z" fill="#007905"/>
</g>
</svg>
